<svg width="114" height="39" viewBox="0 0 114 39" fill="none" xmlns="http://www.w3.org/2000/svg">
<path d="M14.45 3V17H7.25V3H0.1V38H7.25V23.75H14.45V38H21.6V3H14.45ZM39.1355 29.55C38.6855 31.35 38.1355 32.1 36.1855 32.1C34.3855 32.1 33.4355 30.9 33.4355 28.15V27.05H45.9355V21.1C45.9355 14.65 42.3355 10.85 36.1855 10.85C30.1355 10.85 26.5855 14.65 26.5855 21.1V28.15C26.5855 34.7 30.1355 38.6 36.0855 38.6C41.8855 38.6 45.4855 35.25 46.0355 29.55H39.1355ZM36.2355 17.15C38.1855 17.15 39.1855 18.3 39.1855 21V22.4H33.4355V21C33.4355 18.3 34.3855 17.15 36.2355 17.15ZM49.7359 38H56.5359V1.75H49.7359V38ZM64.6199 7.6C66.7199 7.6 68.3699 5.85 68.3699 3.85C68.3699 1.7 66.7199 0.0999992 64.6199 0.0999992C62.4199 0.0999992 60.8699 1.7 60.8699 3.85C60.8699 5.95 62.4199 7.6 64.6199 7.6ZM61.1699 38H68.0199V11.5H61.1699V38ZM81.8852 38.6C87.8852 38.6 91.5352 34.9 91.6852 28.65H84.8352C84.6852 30.9 83.8352 32.1 82.0352 32.1C80.2852 32.1 79.3352 30.9 79.3352 28.65V20.75C79.3352 18.5 80.2852 17.35 82.0352 17.35C83.7852 17.35 84.6852 18.5 84.7852 20.75H91.6352C91.4352 14.55 88.1852 10.85 81.8852 10.85C75.9352 10.85 72.4352 14.55 72.4352 20.75V28.65C72.4352 34.9 75.9352 38.6 81.8852 38.6ZM104.154 10.85C98.3543 10.85 94.8043 14.15 94.5543 19.75H101.404C101.654 18 102.854 17.4 104.054 17.4C105.904 17.4 106.404 18.8 106.404 21.15V22.1H103.954C98.0543 22.1 93.8043 24.75 93.8043 30.4C93.8043 35.2 96.8043 38.7 101.704 38.7C104.704 38.7 106.504 37.3 107.454 35.5L107.854 38H113.254V21.15C113.254 14.4 110.504 10.85 104.154 10.85ZM106.404 29.65C106.404 31.7 105.204 32.9 103.354 32.9C101.454 32.9 100.754 31.7 100.754 30.4C100.754 28.5 102.054 27.55 104.104 27.55H106.404V29.65Z" fill="#1B1D1F"/>
</svg>
